<svg version="1.0" xmlns="http://www.w3.org/2000/svg"
    width="300" height="300" viewBox="0 0 300 300"
    preserveAspectRatio="xMidYMid meet" id="kitsune-logo">

  <!-- Define Purple Gradients -->
  <defs>
    <linearGradient id="gradientCracks" x1="0%" y1="0%" x2="100%" y2="100%">
      <stop offset="0%" style="stop-color:#9b51ff; stop-opacity:1" />
      <stop offset="100%" style="stop-color:#6a0dad; stop-opacity:1" />
    </linearGradient>
    <linearGradient id="gradientEyes" x1="0%" y1="0%" x2="100%" y2="100%">
      <stop offset="0%" style="stop-color:#6a0dad; stop-opacity:1" />
      <stop offset="100%" style="stop-color:#9b51ff; stop-opacity:1" />
    </linearGradient>
    <linearGradient id="gradientEars" x1="0%" y1="0%" x2="100%" y2="100%">
      <stop offset="0%" style="stop-color:#9b51ff; stop-opacity:1" />
      <stop offset="100%" style="stop-color:#6a0dad; stop-opacity:1" />
    </linearGradient>
  </defs>

  <g transform="translate(0.000000,300) scale(0.100000,-0.100000)"
     stroke="rgb(219, 187, 255)" stroke-width="2">

    <!-- Kitsune Mask -->
    <path fill="#ffffff" d="M473 2792 c-42 -101 -73 -292 -73 -452 0 -141 16 -252 66 -480 l46
    -205 -11 -125 c-24 -272 -9 -433 53 -573 35 -79 70 -127 179 -245 67 -72 125
    -150 194 -259 61 -98 122 -181 163 -222 164 -166 381 -206 590 -109 98 46 206
    161 298 316 78 130 145 218 260 344 102 111 135 187 172 389 23 129 25 206 8
    374 l-11 120 36 150 c59 251 71 332 71 525 0 187 -15 298 -57 415 -29 78 -47
    81 -130 22 -166 -120 -407 -417 -503 -620 -21 -43 -6 -43 -164 -8 -124 27
    -291 28 -415 2 -49 -11 -97 -22 -106 -25 -12 -5 -29 14 -70 76 -163 250 -236
    347 -343 454 -116 115 -188 171 -220 171 -12 0 -24 -13 -33 -35z m128 -45
    c146 -126 239 -234 373 -437 71 -107 132 -198 135 -202 4 -4 28 -1 55 7 26 8
    98 22 159 31 131 19 272 9 405 -30 l82 -24 40 76 c94 173 259 394 372 497 74
    67 187 150 194 142 11 -11 54 -150 66 -215 8 -40 13 -142 13 -252 -1 -201 -9
    -262 -71 -525 l-36 -150 13 -124 c21 -213 3 -388 -57 -556 -32 -88 -55 -124
    -146 -222 -109 -116 -139 -156 -221 -293 -135 -224 -232 -316 -380 -361 -55
    -17 -87 -21 -166 -17 -89 3 -105 7 -174 41 -109 54 -175 119 -274 271 -146
    224 -154 234 -244 332 -134 144 -167 198 -210 352 -20 73 -21 89 -14 287 11
    302 10 315 -28 480 -51 217 -67 335 -67 486 0 142 10 233 37 338 21 87 40 131
    57 131 7 0 46 -29 87 -63z"/>

    <!-- Ears -->
    <path fill="url(#gradientEars)" d="M540 2499 c-18 -142 -8 -416 18 -539 23 -107 64 -273 68 -279 1 -1
    33 13 70 33 65 34 69 35 87 18 11 -9 27 -35 37 -57 29 -68 66 -103 125 -121
    66 -19 99 -54 121 -129 11 -40 24 -61 47 -77 l32 -23 -22 31 c-12 17 -27 53
    -34 80 -22 90 -41 117 -112 152 -53 27 -68 41 -89 80 -14 26 -29 60 -32 77 -4
    16 -16 35 -27 43 -10 7 -19 19 -19 26 0 7 -13 30 -30 52 -30 40 -37 82 -20
    134 6 20 8 13 9 -29 1 -48 5 -57 38 -87 42 -38 53 -42 53 -16 0 28 47 119 67
    131 47 27 47 24 -2 122 -51 101 -150 251 -222 336 -57 68 -132 143 -143 143
    -4 0 -13 -45 -20 -101z"/>

    <path fill="url(#gradientEars)" d="M2255 2498 c-97 -103 -149 -176 -250 -351 l-68 -118 21 -22 c11 -12
    39 -57 62 -100 l42 -77 31 22 c42 29 47 37 47 79 0 36 31 89 52 89 6 0 3 -9
    -7 -20 -14 -16 -17 -30 -12 -75 6 -56 6 -56 -29 -72 -19 -9 -34 -24 -34 -33 0
    -10 -18 -22 -49 -34 -55 -19 -78 -42 -110 -106 -29 -58 -48 -78 -92 -100 -50
    -26 -58 -39 -95 -148 -31 -93 -31 -96 -8 -67 13 17 24 35 24 40 0 6 11 33 24
    62 20 43 33 56 75 77 34 18 60 41 82 73 57 85 78 103 123 103 23 0 47 7 58 17
    18 16 22 14 78 -42 33 -32 61 -57 64 -54 8 8 75 334 87 424 7 58 9 157 6 280
    -6 189 -12 245 -27 245 -5 0 -47 -42 -95 -92z"/>

    <!-- Eyes -->
    <path fill="url(#gradientEyes)" d="M630 1442 c1 -116 60 -271 135 -351 65 -69 128 -107 244 -146 158
    -53 204 -83 243 -158 10 -22 21 -37 24 -34 7 7 -25 227 -42 287 -51 178 -156
    274 -409 373 -49 19 -114 42 -142 50 l-53 16 0 -37z m297 -217 c97 -45 137
    -76 174 -133 39 -62 38 -72 -8 -65 -151 21 -239 77 -295 187 l-30 59 41 -7
    c22 -3 75 -22 118 -41z"/>

    <path fill="url(#gradientEyes)" d="M2140 1441 c-142 -52 -209 -84 -279 -137 -68 -51 -153 -160 -177
    -225 -12 -35 -53 -283 -54 -324 0 -5 14 14 30 43 40 69 91 104 208 143 188 61
    289 137 348 259 34 69 64 186 64 244 0 46 -6 46 -140 -3z m-11 -188 c-28 -75
    -100 -151 -173 -184 -39 -17 -166 -43 -173 -35 -10 10 29 78 65 114 52 52 212
    129 274 131 15 1 16 -3 7 -26z"/>

    <!-- Cracks -->
    <path fill="url(#gradientCracks)" d="M1335 2060 c2 -25 7 -68 10 -96 6 -42 3 -62 -23 -125 -43 -107 -48
    -135 -24 -141 22 -6 92 -171 92 -217 0 -16 -9 -50 -20 -76 -33 -76 -27 -122
    26 -217 26 -46 53 -94 60 -108 8 -14 14 -47 15 -75 1 -40 3 -45 9 -25 17 54
    10 93 -34 184 -56 115 -63 148 -41 223 19 65 34 86 74 103 36 15 141 143 141
    173 0 12 -9 47 -21 77 -15 42 -19 47 -14 20 19 -116 21 -106 -25 -166 -44 -56
    -83 -84 -118 -84 -14 0 -23 14 -36 58 -10 31 -30 75 -44 97 -31 48 -32 92 -3
    155 25 54 26 102 5 161 -8 24 -19 62 -24 84 l-9 40 4 -45z"/>

    <path fill="url(#gradientCracks)" d="M555 1078 c9 -55 44 -148 55 -148 5 0 12 5 15 11 8 12 61 3 92 -17
    12 -8 27 -32 33 -54 16 -58 53 -96 113 -116 117 -38 157 -70 157 -125 0 -54
    15 -88 60 -134 21 -22 51 -60 65 -85 15 -26 23 -34 19 -20 -10 37 -30 74 -59
    108 -35 42 -55 94 -55 145 0 55 -30 89 -110 124 -92 41 -104 49 -130 96 -38
    67 -48 76 -122 109 -64 29 -70 34 -95 89 -16 32 -32 58 -36 58 -5 1 -6 -18 -2
    -41z"/>

    <path fill="url(#gradientCracks)" d="M2320 1071 c-29 -62 -53 -84 -121 -106 -42 -14 -56 -25 -79 -64 -52
    -84 -61 -92 -143 -130 -104 -48 -118 -64 -126 -145 -6 -52 -14 -74 -39 -108
    -39 -52 -57 -85 -66 -118 -5 -18 -1 -16 13 10 10 19 42 61 70 93 45 52 51 63
    51 103 0 25 5 54 10 64 14 26 85 66 141 80 64 16 96 46 122 115 21 55 26 60
    67 72 34 10 47 10 58 1 11 -10 17 -8 29 7 20 28 45 120 41 152 -3 24 -5 22
    -28 -26z"/>

  </g>

</svg>
